#!OML:ASF F:\VICON\USERDATA\INSTALL\rory3\rory3.ASF
:FULLY-SPECIFIED
:DEGREES
3570
root -1.39066 18.9842 6.55946 -6.88685 -41.7699 14.2291
lowerback 7.6552 -0.863905 -3.90147
upperback -0.0706945 -1.3458 3.96925
thorax -4.18994 -0.553854 6.51949
lowerneck -16.5609 4.24674 -5.09499
upperneck -1.85692 6.23788 5.54239
head 1.93797 3.26942 3.15423
rclavicle 6.99722e-014 -5.725e-014
rhumerus -15.2297 12.9332 -71.5014
rradius 34.2718
rwrist -3.76917
rhand -39.5316 352.52
rfingers 7.12502
rthumb -12.5162 -757.085
lclavicle 6.99722e-014 -5.725e-014
lhumerus 87.3836 11.1043 16.8223
lradius 36.4166
lwrist -35.8199
lhand -36.1631 26.495
lfingers 7.12502
lthumb -9.26723 56.2713
rfemur -14.021 26.762 4.24756
rtibia 25.7381
rfoot -14.4364 -7.21909
rtoes -6.32736
lfemur 6.89024 3.98905 -21.4909
ltibia 12.2714
lfoot -7.84992 34.1441
ltoes -6.95787
3571
root -1.39253 18.9818 6.55117 -6.79144 -41.6709 14.1426
lowerback 7.73321 -0.846583 -3.95553
upperback -0.0621815 -1.32987 3.95496
thorax -4.22637 -0.543839 6.53619
lowerneck -16.9009 4.23963 -5.06476
upperneck -1.35081 6.22762 5.50049
head 2.175 3.26698 3.16601
rclavicle -9.85972e-014 0
rhumerus -15.2821 12.939 -71.537
rradius 34.2494
rwrist -3.66668
rhand -39.3375 352.344
rfingers 7.12502
rthumb -12.3291 -757.273
lclavicle -9.85972e-014 0
lhumerus 87.3012 10.5394 15.7563
lradius 37.7826
lwrist -35.8795
lhand -36.2587 26.2956
lfingers 7.12502
lthumb -9.35941 56.0678
rfemur -14.0928 26.6367 4.3167
rtibia 25.8136
rfoot -14.3708 -7.25121
rtoes -6.01644
lfemur 6.77178 3.9589 -21.4289
ltibia 12.375
lfoot -8.121 34.2032
ltoes -6.14725
3572
root -1.39367 18.9796 6.54281 -6.74096 -41.5654 14.0658
lowerback 7.84627 -0.833062 -3.99887
upperback -0.0408241 -1.31947 3.93317
thorax -4.26868 -0.537008 6.5401
lowerneck -17.1494 4.23282 -5.1217
upperneck -1.02817 6.23269 5.51087
head 2.32921 3.27274 3.20303
rclavicle -1.11319e-013 -3.18055e-014
rhumerus -15.3123 13.0062 -71.6233
rradius 34.2415
rwrist -3.65116
rhand -39.5063 352.08
rfingers 7.12502
rthumb -12.4919 -757.527
lclavicle -1.11319e-013 -3.18055e-014
lhumerus 87.176 10.0311 14.6907
lradius 39.2507
lwrist -35.8861
lhand -36.1625 26.1964
lfingers 7.12502
lthumb -9.2666 55.9727
rfemur -14.1177 26.4187 4.40357
rtibia 25.8957
rfoot -14.2829 -7.18658
rtoes -5.93559
lfemur 6.72986 3.92214 -21.3765
ltibia 12.4364
lfoot -8.26625 34.2311
ltoes -7.06944
3573
root -1.39279 18.9765 6.53558 -6.62177 -41.4262 13.9338
lowerback 7.87992 -0.856731 -3.98901
upperback 0.00332914 -1.35182 3.9273
thorax -4.23706 -0.555569 6.53158
lowerneck -17.155 4.24027 -5.25124
upperneck -1.06386 6.2681 5.54079
head 2.31144 3.2919 3.2386
rclavicle -2.54444e-014 1.59028e-014
rhumerus -15.2859 13.147 -71.7269
rradius 34.2941
rwrist -3.64072
rhand -39.5772 351.919
rfingers 7.12502
rthumb -12.5602 -757.683
lclavicle -2.54444e-014 1.59028e-014
lhumerus 87.0688 9.66597 13.5557
lradius 40.6593
lwrist -35.7905
lhand -35.9708 26.166
lfingers 7.12502
lthumb -9.08162 55.9505
rfemur -14.1803 26.1647 4.50998
rtibia 25.9801
rfoot -14.2456 -7.09141
rtoes -6.05645
lfemur 6.66914 3.86378 -21.2873
ltibia 12.455
lfoot -8.26153 34.2423
ltoes -7.71779
3574
root -1.39134 18.9737 6.52945 -6.48851 -41.2896 13.8307
lowerback 7.865 -0.875675 -3.98016
upperback 0.0360468 -1.37768 3.88892
thorax -4.19176 -0.571198 6.48674
lowerneck -17.0788 4.26989 -5.26356
upperneck -1.22621 6.30993 5.54129
head 2.23852 3.31216 3.2343
rclavicle 3.18055e-015 1.90833e-014
rhumerus -15.2577 13.1692 -71.838
rradius 34.3181
rwrist -3.5415
rhand -39.3729 352.019
rfingers 7.12502
rthumb -12.3632 -757.595
lclavicle 3.18055e-015 1.90833e-014
lhumerus 86.9481 9.29347 12.4196
lradius 42.031
lwrist -35.5453
lhand -36.073 25.6515
lfingers 7.12502
lthumb -9.18025 55.4317
rfemur -14.2743 26.0006 4.57221
rtibia 26.0573
rfoot -14.2548 -7.11584
rtoes -6.00519
lfemur 6.54527 3.7701 -21.2321
ltibia 12.4949
lfoot -8.15792 34.3217
ltoes -7.58383
3575
root -1.39035 18.9732 6.5209 -6.34134 -41.1482 13.6855
lowerback 7.89749 -0.902614 -4.00734
upperback 0.0550857 -1.41691 3.8956
thorax -4.18377 -0.590867 6.5144
lowerneck -17.049 4.31529 -5.31937
upperneck -1.25483 6.38185 5.52051
head 2.21755 3.34724 3.23932
rclavicle -6.87795e-014 4.45278e-014
rhumerus -15.2561 13.3834 -71.9127
rradius 34.3788
rwrist -3.63614
rhand -39.2947 352.234
rfingers 7.12502
rthumb -12.2878 -757.385
lclavicle -6.87795e-014 4.45278e-014
lhumerus 86.7492 8.87932 11.4086
lradius 43.3531
lwrist -35.3506
lhand -36.2382 25.056
lfingers 7.12502
lthumb -9.33969 54.8291
rfemur -14.3583 25.8869 4.67759
rtibia 26.1252
rfoot -14.2525 -7.15703
rtoes -5.89516
lfemur 6.40143 3.66854 -21.1345
ltibia 12.5527
lfoot -8.14668 34.378
ltoes -7.52072
3576
root -1.38945 18.9716 6.51032 -6.15678 -40.9726 13.4942
lowerback 7.91994 -0.934066 -4.02349
upperback 0.0775309 -1.46048 3.91704
thorax -4.16581 -0.613265 6.55153
lowerneck -17.1804 4.34442 -5.51284
upperneck -1.05302 6.4557 5.63735
head 2.29783 3.39024 3.33357
rclavicle 9.54166e-014 -1.59028e-014
rhumerus -15.2461 13.5267 -72.0091
rradius 34.435
rwrist -3.80916
rhand -39.3787 352.172
rfingers 7.12502
rthumb -12.3688 -757.443
lclavicle 9.54166e-014 -1.59028e-014
lhumerus 86.6144 8.47493 10.5343
lradius 44.4688
lwrist -35.2986
lhand -36.0529 25.4699
lfingers 7.12502
lthumb -9.16085 55.2509
rfemur -14.4391 25.8155 4.80981
rtibia 26.1987
rfoot -14.274 -7.249
rtoes -5.65572
lfemur 6.25582 3.59839 -20.9882
ltibia 12.5925
lfoot -7.96714 34.3977
ltoes -7.76131
3577
root -1.38837 18.969 6.50283 -6.01125 -40.7863 13.3332
lowerback 7.89519 -0.929984 -4.00066
upperback 0.12684 -1.45439 3.87474
thorax -4.10264 -0.614316 6.49016
lowerneck -17.4777 4.34981 -5.59105
upperneck -0.522477 6.47165 6.07358
head 2.2108 3.43126 3.16899
rclavicle 1.90833e-014 -4.13472e-014
rhumerus -15.2117 13.3283 -72.1445
rradius 34.4499
rwrist -3.7149
rhand -39.4257 351.885
rfingers 7.12502
rthumb -12.4141 -757.726
lclavicle 1.90833e-014 -4.13472e-014
lhumerus 86.6287 8.18452 9.50267
lradius 45.4003
lwrist -35.1069
lhand -35.9116 26.2216
lfingers 7.12502
lthumb -9.02452 56.0085
rfemur -14.4651 25.7449 4.93515
rtibia 26.2772
rfoot -14.3323 -7.31864
rtoes -5.58496
lfemur 6.18772 3.48522 -20.8888
ltibia 12.5936
lfoot -8.14196 34.3799
ltoes -7.96107
3578
root -1.38725 18.9646 6.49881 -5.94048 -40.6157 13.2569
lowerback 7.83181 -0.914965 -3.99089
upperback 0.191729 -1.43545 3.79178
thorax -4.00394 -0.610429 6.38979
lowerneck -17.4506 4.37429 -5.59125
upperneck -0.549317 6.50019 6.16744
head 2.19433 3.44948 3.19804
rclavicle -6.87795e-014 8.5875e-014
rhumerus -15.1333 12.9716 -72.3115
rradius 34.3597
rwrist -3.41131
rhand -39.4034 351.673
rfingers 7.12502
rthumb -12.3926 -757.94
lclavicle -6.87795e-014 8.5875e-014
lhumerus 86.5086 8.00145 8.34284
lradius 46.5108
lwrist -34.7481
lhand -36.0788 26.1994
lfingers 7.12502
lthumb -9.18585 55.9794
rfemur -14.4651 25.6256 5.00343
rtibia 26.3565
rfoot -14.3918 -7.34456
rtoes -5.70175
lfemur 6.1544 3.32625 -20.8618
ltibia 12.6102
lfoot -8.58663 34.3202
ltoes -7.96222
3579
root -1.38552 18.9619 6.49234 -5.82806 -40.4324 13.1192
lowerback 7.79587 -0.938565 -3.98188
upperback 0.235741 -1.46697 3.75542
thorax -3.9344 -0.629873 6.34659
lowerneck -17.3541 4.41009 -5.56017
upperneck -0.669953 6.54233 6.13826
head 2.14253 3.46805 3.18114
rclavicle 7.27552e-014 3.18055e-015
rhumerus -15.1539 12.9784 -72.469
rradius 34.4505
rwrist -3.44911
rhand -39.4345 351.842
rfingers 7.12502
rthumb -12.4226 -757.769
lclavicle 7.27552e-014 3.18055e-015
lhumerus 86.2104 7.80156 7.35152
lradius 47.6226
lwrist -34.5475
lhand -36.083 26.0355
lfingers 7.12502
lthumb -9.18993 55.8152
rfemur -14.4529 25.4929 5.12289
rtibia 26.4181
rfoot -14.4366 -7.43331
rtoes -5.91621
lfemur 6.05562 3.04202 -20.7767
ltibia 12.6761
lfoot -8.94019 34.3579
ltoes -7.70252
3580
root -1.38278 18.9605 6.48185 -5.64247 -40.2496 12.9144
lowerback 7.79996 -0.949175 -3.96503
upperback 0.227832 -1.47894 3.77454
thorax -3.94324 -0.635542 6.3589
lowerneck -17.2337 4.42161 -5.59717
upperneck -0.745161 6.56744 6.05222
head 2.1014 3.47597 3.15668
rclavicle -1.41137e-013 5.725e-014
rhumerus -15.3119 13.1778 -72.5486
rradius 34.6835
rwrist -3.76798
rhand -39.7197 351.761
rfingers 7.12502
rthumb -12.6976 -757.833
lclavicle -1.41137e-013 5.725e-014
lhumerus 85.9804 7.45794 6.73611
lradius 48.5967
lwrist -34.6846
lhand -35.8593 25.9759
lfingers 7.12502
lthumb -8.974 55.7651
rfemur -14.491 25.4011 5.26722
rtibia 26.4649
rfoot -14.467 -7.49923
rtoes -5.64064
lfemur 5.90355 2.85305 -20.6098
ltibia 12.7467
lfoot -9.11874 34.3376
ltoes -7.54385
3581
root -1.37862 18.9599 6.47245 -5.49521 -40.0991 12.6678
lowerback 7.87399 -0.927566 -3.94052
upperback 0.237148 -1.44822 3.82429
thorax -3.97872 -0.619556 6.39713
lowerneck -17.0748 4.43254 -5.63337
upperneck -0.968129 6.59572 5.6552
head 2.29459 3.46203 3.36864
rclavicle -3.93594e-014 3.18055e-015
rhumerus -15.4205 13.2457 -72.599
rradius 34.8682
rwrist -3.9647
rhand -39.8511 351.258
rfingers 7.12502
rthumb -12.8243 -758.328
lclavicle -3.93594e-014 3.18055e-015
lhumerus 85.7642 7.11397 6.29999
lradius 49.562
lwrist -34.8566
lhand -35.5933 25.8792
lfingers 7.12502
lthumb -8.71738 55.6792
rfemur -14.4727 25.2454 5.47987
rtibia 26.5154
rfoot -14.4882 -7.49353
rtoes -5.43073
lfemur 5.84482 2.80725 -20.4038
ltibia 12.8048
lfoot -9.0886 34.2754
ltoes -7.74666
3582
root -1.37369 18.9584 6.46734 -5.44744 -39.9024 12.5149
lowerback 7.9191 -0.925101 -3.92629
upperback 0.293361 -1.44679 3.78574
thorax -3.94671 -0.621795 6.3477
lowerneck -17.4328 4.48799 -5.40755
upperneck -0.349112 6.63306 5.74763
head 2.26196 3.49957 3.0513
rclavicle 2.42517e-014 -4.77083e-014
rhumerus -15.4155 13.178 -72.743
rradius 34.8803
rwrist -4.03515
rhand -39.6417 351.571
rfingers 7.12502
rthumb -12.6224 -758.028
lclavicle 2.42517e-014 -4.77083e-014
lhumerus 85.5494 6.90554 5.69905
lradius 50.403
lwrist -34.866
lhand -35.4828 25.8648
lfingers 7.12502
lthumb -8.61073 55.6692
rfemur -14.3914 25.057 5.62539
rtibia 26.5735
rfoot -14.5043 -7.44062
rtoes -5.43014
lfemur 5.80609 2.70149 -20.2978
ltibia 12.9297
lfoot -9.19999 34.1943
ltoes -7.58198
